<?xml version="1.0" encoding="utf-8"?>
<!-- Generator: Adobe Illustrator 23.0.1, SVG Export Plug-In . SVG Version: 6.00 Build 0)  -->
<svg version="1.1" id="Слой_1" xmlns="http://www.w3.org/2000/svg" xmlns:xlink="http://www.w3.org/1999/xlink" x="0px" y="0px"
	 viewBox="0 0 39.9 39.9" style="enable-background:new 0 0 39.9 39.9;" xml:space="preserve">
<g>
	<path d="M37,39.4L0.5,2.9c-0.7-0.7-0.7-1.7,0-2.4l0,0c0.7-0.7,1.7-0.7,2.4,0L39.4,37c0.7,0.7,0.7,1.7,0,2.4h0
		C38.8,40.1,37.7,40.1,37,39.4z"/>
	<path d="M39.4,2.9L2.9,39.4c-0.7,0.7-1.7,0.7-2.4,0h0c-0.7-0.7-0.7-1.7,0-2.4L37,0.5c0.7-0.7,1.7-0.7,2.4,0l0,0
		C40.1,1.2,40.1,2.2,39.4,2.9z"/>
</g>
</svg>
