<?xml version="1.0" encoding="utf-8"?>
<!-- Generator: Adobe Illustrator 22.1.0, SVG Export Plug-In . SVG Version: 6.00 Build 0)  -->
<svg version="1.1"
	 id="svg19052" inkscape:version="0.92.1 r15371" sodipodi:docname="ALLVAR.svg" xmlns:cc="http://creativecommons.org/ns#" xmlns:dc="http://purl.org/dc/elements/1.1/" xmlns:inkscape="http://www.inkscape.org/namespaces/inkscape" xmlns:rdf="http://www.w3.org/1999/02/22-rdf-syntax-ns#" xmlns:sodipodi="http://sodipodi.sourceforge.net/DTD/sodipodi-0.dtd" xmlns:svg="http://www.w3.org/2000/svg"
	 xmlns="http://www.w3.org/2000/svg" xmlns:xlink="http://www.w3.org/1999/xlink" x="0px" y="0px" viewBox="0 0 14.1 21"
	 style="enable-background:new 0 0 14.1 21;" xml:space="preserve">
<style type="text/css">
	.st0{fill:#7A1F2E;}
	.st1{fill:#FFFFFF;stroke:#000000;stroke-miterlimit:10;}
</style>
<sodipodi:namedview  bordercolor="#666666" borderopacity="1" gridtolerance="10" guidetolerance="10" id="namedview19054" inkscape:current-layer="g19060" inkscape:cx="479.09063" inkscape:cy="73.316223" inkscape:pageopacity="0" inkscape:pageshadow="2" inkscape:window-height="988" inkscape:window-maximized="1" inkscape:window-width="1680" inkscape:window-x="1272" inkscape:window-y="-8" inkscape:zoom="2.3787301" objecttolerance="10" pagecolor="#ffffff" showgrid="false">
	</sodipodi:namedview>
<path id="path36465" inkscape:connector-curvature="0" class="st0" d="M433.5-773.8c0.4,0,0.6,0.1,0.6,0.3c0,0.1,0,0.2-0.1,0.4l0,0
	l-0.5,3.6c0,0.3-0.3,0.5-0.7,0.5h-6v3.1h5c0.3,0,0.4,0,0.5,0.1s0.1,0.3,0.1,0.5v3.5c0,0.3,0,0.4-0.1,0.5s-0.3,0.1-0.5,0.1h-5v3.6
	h6.4c0.3,0,0.5,0,0.5,0.1c0.1,0.1,0.1,0.2,0.1,0.5v3.6c0,0.3,0,0.5-0.1,0.5c-0.1,0.1-0.2,0.1-0.5,0.1"/>
<g>
	<path d="M7,21c-0.4-0.5-0.7-1-1-1.5c-1.5-2.3-3-4.7-4.2-7.1C1.2,11.2,0.6,10,0.3,8.7C-0.2,7,0,5.4,0.7,4c1.1-2.2,2.8-3.4,5.2-3.9
		c3.7-0.7,7.4,2,8.1,5.7c0.2,1.2,0,2.3-0.4,3.4c-0.6,1.8-1.5,3.6-2.5,5.3c-1.2,2.1-2.5,4.2-3.9,6.3C7.1,20.8,7.1,20.9,7,21z M7,19.4
		c0-0.1,0.1-0.1,0.1-0.1c1.2-1.8,2.4-3.7,3.5-5.6c0.8-1.4,1.5-2.9,2.1-4.4c0.4-1.1,0.6-2.2,0.4-3.3c-0.6-2.6-2.2-4.3-4.8-4.8
		C5.7,0.5,3.6,1.4,2,3.5C0.9,5.1,0.5,6.8,1.2,8.6c0.3,0.9,0.7,1.8,1.1,2.7c1.2,2.5,2.6,4.9,4.1,7.2C6.6,18.8,6.8,19.1,7,19.4z"/>
</g>
<circle class="st1" cx="7.1" cy="6.4" r="2.2"/>
</svg>
