<?xml version="1.0" encoding="utf-8"?>
<!-- Generator: Adobe Illustrator 22.1.0, SVG Export Plug-In . SVG Version: 6.00 Build 0)  -->
<svg version="1.1"
	 id="svg19052" inkscape:version="0.92.1 r15371" sodipodi:docname="ALLVAR.svg" xmlns:cc="http://creativecommons.org/ns#" xmlns:dc="http://purl.org/dc/elements/1.1/" xmlns:inkscape="http://www.inkscape.org/namespaces/inkscape" xmlns:rdf="http://www.w3.org/1999/02/22-rdf-syntax-ns#" xmlns:sodipodi="http://sodipodi.sourceforge.net/DTD/sodipodi-0.dtd" xmlns:svg="http://www.w3.org/2000/svg"
	 xmlns="http://www.w3.org/2000/svg" xmlns:xlink="http://www.w3.org/1999/xlink" x="0px" y="0px" viewBox="0 0 15 15"
	 style="enable-background:new 0 0 15 15;" xml:space="preserve">
<style type="text/css">
	.st0{fill:#7A1F2E;}
	.st1{fill:#313131;}
</style>
<sodipodi:namedview  bordercolor="#666666" borderopacity="1" gridtolerance="10" guidetolerance="10" id="namedview19054" inkscape:current-layer="g19060" inkscape:cx="479.09063" inkscape:cy="73.316223" inkscape:pageopacity="0" inkscape:pageshadow="2" inkscape:window-height="988" inkscape:window-maximized="1" inkscape:window-width="1680" inkscape:window-x="1272" inkscape:window-y="-8" inkscape:zoom="2.3787301" objecttolerance="10" pagecolor="#ffffff" showgrid="false">
	</sodipodi:namedview>
<path id="path36465" inkscape:connector-curvature="0" class="st0" d="M430.8-774.5c0.4,0,0.6,0.1,0.6,0.3c0,0.1,0,0.2-0.1,0.4l0,0
	l-0.5,3.6c0,0.3-0.3,0.5-0.7,0.5h-6v3.1h5c0.3,0,0.4,0,0.5,0.1c0.1,0.1,0.1,0.3,0.1,0.5v3.5c0,0.3,0,0.4-0.1,0.5
	c-0.1,0.1-0.3,0.1-0.5,0.1h-5v3.6h6.4c0.3,0,0.5,0,0.5,0.1c0.1,0.1,0.1,0.2,0.1,0.5v3.6c0,0.3,0,0.5-0.1,0.5
	c-0.1,0.1-0.2,0.1-0.5,0.1"/>
<g>
	<g>
		<g>
			<g>
				<path class="st1" d="M11.2,15c-0.2,0-0.5,0-1-0.1c-0.4-0.1-1-0.2-1.6-0.5c-0.6-0.3-1.3-0.7-2.2-1.2c-0.8-0.5-1.6-1.3-2.5-2.2
					c-0.7-0.7-1.3-1.3-1.8-2C1.7,8.4,1.3,7.8,1,7.3c-0.3-0.5-0.5-1-0.7-1.5C0.2,5.4,0.1,4.9,0.1,4.6C0,4.2,0,4,0,3.7
					c0-0.1,0-0.2,0-0.3C0,3.1,0.1,3,0.2,2.8c0.1-0.2,0.2-0.4,0.4-0.5l1.9-1.9C3-0.1,3.6-0.1,4.1,0.2c0.1,0.1,0.2,0.2,0.4,0.4l1.6,3
					C6.2,4,6.2,4.3,6.2,4.6C6.1,4.8,5.9,5.1,5.8,5.3L5.2,5.9c0,0.1,0.1,0.3,0.1,0.4c0.1,0.2,0.3,0.4,0.5,0.8c0.2,0.3,0.6,0.7,1,1.1
					c0.4,0.4,0.8,0.7,1.1,1c0.3,0.2,0.6,0.4,0.8,0.5C9,9.9,9.1,9.9,9.1,9.9l0.7-0.7c0.5-0.4,1.2-0.5,1.6-0.3c0,0,0.1,0,0.1,0.1
					l2.8,1.7c0.4,0.3,0.6,0.6,0.6,0.9l0,0c0.1,0.4-0.1,0.7-0.4,1l-1.9,1.9c-0.1,0.1-0.3,0.2-0.5,0.4c-0.2,0.1-0.4,0.1-0.6,0.1h-0.1
					C11.4,15,11.3,15,11.2,15z M1.1,3.6c0,0.1,0,0.1,0,0.3c0,0.1,0,0.3,0.1,0.6c0.1,0.3,0.1,0.6,0.2,1C1.6,5.9,1.7,6.3,2,6.8
					s0.6,1,1,1.6c0.4,0.6,1,1.2,1.6,1.9c0.8,0.8,1.6,1.5,2.4,2c0.7,0.4,1.4,0.8,1.9,1c0.6,0.2,1,0.4,1.4,0.4c0.7,0.1,0.8,0.1,1,0.1
					h0.1c0.1,0,0.1-0.1,0.2-0.1c0.1,0,0.1-0.1,0.1-0.1l2-1.9c0.1-0.1,0.1-0.1,0.1-0.1s0-0.1-0.1-0.1L11.1,10c0,0-0.1,0-0.1-0.1l0,0
					c0,0-0.2,0-0.4,0.1l-0.8,0.8c-0.1,0.1-0.2,0.1-0.3,0.2c-0.1,0.1-0.3,0.1-0.4,0.1H9c-0.1,0-0.4-0.1-0.7-0.3
					c-0.2-0.1-0.6-0.3-1-0.6C7,9.9,6.5,9.5,6.1,9.1S5.3,8.2,5,7.8c-0.3-0.4-0.5-0.7-0.7-1C4.2,6.5,4.1,6.2,4,6V5.9
					c0-0.1,0.1-0.5,0.2-0.7L5,4.5C5,4.5,5,4.4,5,4.3s0-0.1,0-0.1l-1.6-3L3.4,1.1l0,0c0,0-0.1,0-0.1,0.1l-2,1.9
					C1.3,3.2,1.3,3.2,1.2,3.3C1.2,3.4,1.1,3.5,1.1,3.6z"/>
			</g>
		</g>
	</g>
</g>
</svg>
