<?xml version="1.0" encoding="utf-8"?>
<!-- Generator: Adobe Illustrator 22.1.0, SVG Export Plug-In . SVG Version: 6.00 Build 0)  -->
<svg version="1.1"
	 id="svg19052" inkscape:version="0.92.1 r15371" sodipodi:docname="ALLVAR.svg" xmlns:cc="http://creativecommons.org/ns#" xmlns:dc="http://purl.org/dc/elements/1.1/" xmlns:inkscape="http://www.inkscape.org/namespaces/inkscape" xmlns:rdf="http://www.w3.org/1999/02/22-rdf-syntax-ns#" xmlns:sodipodi="http://sodipodi.sourceforge.net/DTD/sodipodi-0.dtd" xmlns:svg="http://www.w3.org/2000/svg"
	 xmlns="http://www.w3.org/2000/svg" xmlns:xlink="http://www.w3.org/1999/xlink" x="0px" y="0px" viewBox="0 0 17 12.6"
	 style="enable-background:new 0 0 17 12.6;" xml:space="preserve">
<style type="text/css">
	.st0{fill:#7A1F2E;}
	.st1{fill:#313131;}
</style>
<sodipodi:namedview  bordercolor="#666666" borderopacity="1" gridtolerance="10" guidetolerance="10" id="namedview19054" inkscape:current-layer="g19060" inkscape:cx="479.09063" inkscape:cy="73.316223" inkscape:pageopacity="0" inkscape:pageshadow="2" inkscape:window-height="988" inkscape:window-maximized="1" inkscape:window-width="1680" inkscape:window-x="1272" inkscape:window-y="-8" inkscape:zoom="2.3787301" objecttolerance="10" pagecolor="#ffffff" showgrid="false">
	</sodipodi:namedview>
<path id="path36465" inkscape:connector-curvature="0" class="st0" d="M430.8-774.5c0.4,0,0.6,0.1,0.6,0.3c0,0.1,0,0.2-0.1,0.4l0,0
	l-0.5,3.6c0,0.3-0.3,0.5-0.7,0.5h-6v3.1h5c0.3,0,0.4,0,0.5,0.1c0.1,0.1,0.1,0.3,0.1,0.5v3.5c0,0.3,0,0.4-0.1,0.5
	c-0.1,0.1-0.3,0.1-0.5,0.1h-5v3.6h6.4c0.3,0,0.5,0,0.5,0.1c0.1,0.1,0.1,0.2,0.1,0.5v3.6c0,0.3,0,0.5-0.1,0.5
	c-0.1,0.1-0.2,0.1-0.5,0.1"/>
<g>
	<path class="st1" d="M15.6,12.6H1.4C0.6,12.6,0,12,0,11.2V1.4C0,0.6,0.6,0,1.4,0h14.3C16.4,0,17,0.6,17,1.4v9.9
		C17,12,16.4,12.6,15.6,12.6z M1.4,1.1c-0.2,0-0.2,0.1-0.2,0.2v9.9c0,0.2,0.1,0.2,0.2,0.2h14.3c0.2,0,0.2-0.1,0.2-0.2V1.4
		c0-0.2-0.1-0.2-0.2-0.2H1.4z"/>
</g>
<g>
	<path class="st1" d="M8.4,7.2c-0.1,0-0.2,0-0.3-0.1l-7.4-5C0.5,2,0.5,1.7,0.6,1.4s0.5-0.3,0.8-0.2L8.4,6l7.4-4.8
		c0.2-0.2,0.6-0.1,0.8,0.2c0.2,0.2,0.1,0.6-0.2,0.8l-7.7,5C8.7,7.1,8.5,7.2,8.4,7.2z"/>
</g>
</svg>
