<svg xmlns="http://www.w3.org/2000/svg" viewBox="0 0 14.1 21"><path d="M433.5-773.8c.4 0 .6.1.6.3 0 .1 0 .2-.1.4l-.5 3.6c0 .3-.3.5-.7.5h-6v3.1h5c.3 0 .4 0 .5.1s.1.3.1.5v3.5c0 .3 0 .4-.1.5s-.3.1-.5.1h-5v3.6h6.4c.3 0 .5 0 .5.1.1.1.1.2.1.5v3.6c0 .3 0 .5-.1.5-.1.1-.2.1-.5.1" fill="#7a1f2e"/><path d="M7 21c-.4-.5-.7-1-1-1.5-1.5-2.3-3-4.7-4.2-7.1C1.2 11.2.6 10 .3 8.7-.2 7 0 5.4.7 4 1.8 1.8 3.5.6 5.9.1c3.7-.7 7.4 2 8.1 5.7.2 1.2 0 2.3-.4 3.4-.6 1.8-1.5 3.6-2.5 5.3-1.2 2.1-2.5 4.2-3.9 6.3-.1 0-.1.1-.2.2zm0-1.6c0-.1.1-.1.1-.1 1.2-1.8 2.4-3.7 3.5-5.6.8-1.4 1.5-2.9 2.1-4.4.4-1.1.6-2.2.4-3.3-.6-2.6-2.2-4.3-4.8-4.8C5.7.5 3.6 1.4 2 3.5.9 5.1.5 6.8 1.2 8.6c.3.9.7 1.8 1.1 2.7 1.2 2.5 2.6 4.9 4.1 7.2l.6.9z"/><circle cx="7.1" cy="6.4" r="2.2" fill="#fff" stroke="#000" stroke-miterlimit="10"/></svg>