<svg id="svg19052" xmlns="http://www.w3.org/2000/svg" viewBox="0 0 17 12.6"><style>.st1{fill:#313131}</style><path id="path36465" d="M430.8-774.5c.4 0 .6.1.6.3 0 .1 0 .2-.1.4l-.5 3.6c0 .3-.3.5-.7.5h-6v3.1h5c.3 0 .4 0 .5.1.1.1.1.3.1.5v3.5c0 .3 0 .4-.1.5-.1.1-.3.1-.5.1h-5v3.6h6.4c.3 0 .5 0 .5.1.1.1.1.2.1.5v3.6c0 .3 0 .5-.1.5-.1.1-.2.1-.5.1" fill="#7a1f2e"/><path class="st1" d="M15.6 12.6H1.4C.6 12.6 0 12 0 11.2V1.4C0 .6.6 0 1.4 0h14.3c.7 0 1.3.6 1.3 1.4v9.9c0 .7-.6 1.3-1.4 1.3zM1.4 1.1c-.2 0-.2.1-.2.2v9.9c0 .2.1.2.2.2h14.3c.2 0 .2-.1.2-.2V1.4c0-.2-.1-.2-.2-.2H1.4z"/><path class="st1" d="M8.4 7.2c-.1 0-.2 0-.3-.1l-7.4-5C.5 2 .5 1.7.6 1.4s.5-.3.8-.2l7 4.8 7.4-4.8c.2-.2.6-.1.8.2.2.2.1.6-.2.8l-7.7 5c0-.1-.2 0-.3 0z"/></svg>